<?xml version="1.0" encoding="utf-8"?>
<!-- Generator: Adobe Illustrator 27.9.0, SVG Export Plug-In . SVG Version: 6.00 Build 0)  -->
<svg version="1.1" id="Capa_1" xmlns="http://www.w3.org/2000/svg" xmlns:xlink="http://www.w3.org/1999/xlink" x="0px" y="0px"
	 viewBox="0 0 344 202.2" style="enable-background:new 0 0 344 202.2;" xml:space="preserve">
<style type="text/css">
	.st0{fill:#FFFFFF;}
	.st1{fill:#BB8300;}
	.st2{font-family:'Raleway-ExtraBold';}
	.st3{font-size:17.441px;}
	.st4{letter-spacing:2;}
</style>
<g id="Capa_1_00000039097453821814598350000016260914701311084696_">
	<g>
		<g>
			<path class="st0" d="M4.6,16.7H0.2V0.9h4.4c4.1,0,6.3,2,6.3,7.6v0.8C10.9,14.6,8.7,16.7,4.6,16.7z M4.5,14.9
				c2.9,0,4.3-1.6,4.3-5.7V8.4c0-4.1-1.4-5.7-4.3-5.7H2.3v12.1L4.5,14.9L4.5,14.9z"/>
		</g>
		<g>
			<path class="st0" d="M24.3,0.9v1.9h-7v5h6v1.9h-6v5.4h7V17h-9V0.9H24.3z"/>
		</g>
		<g>
			<path class="st0" d="M28.1,5.4V5c0-2.6,2-4.4,5.1-4.4c3.6,0,5.1,1.8,5.1,5.1v0.5h-2.1c0-2.6-0.9-3.8-3-3.8l0,0
				c-1.8,0-2.9,0.9-2.9,2.5V5c0,1.5,0.8,2.5,3.4,2.8c3.4,0.5,5,1.8,5,4.4v0.3c0,2.9-2,4.5-5.3,4.5c-3.5,0-5.4-1.8-5.4-5.4v-0.3h2.2
				c0,2.5,1.3,3.6,3.1,3.6h0.1c1.9,0,3.1-1,3.1-2.6v-0.1c0-1.6-0.9-2.5-3.5-2.8C29.5,9.1,28.1,7.6,28.1,5.4z"/>
		</g>
		<g>
			<path class="st0" d="M48.9,0.8l4.4,16H51L50,13h-5.1l-1,3.8h-2.3l4.4-16C46,0.8,48.9,0.8,48.9,0.8z M45.5,11h4.1l-2-8L45.5,11z"
				/>
		</g>
		<g>
			<path class="st0" d="M59.3,16.7h-2.1V0.9h4.6c2.4,0,5,0.8,5,4.7V6c0,2.5-1.1,3.8-2.6,4.4l2.6,6.6h-2.3l-2.4-6.1h-3V17
				C59.1,16.7,59.3,16.7,59.3,16.7z M62,8.7c1.3,0,2.9-0.5,2.9-2.9V5.6c0-2.5-1.6-2.9-2.9-2.9h-2.7v5.9h2.6L62,8.7L62,8.7L62,8.7z"
				/>
		</g>
		<g>
			<path class="st0" d="M73.4,16.7h-2.1V0.9h4.6c2.4,0,5,0.8,5,4.7V6c0,2.5-1.1,3.8-2.6,4.4l2.6,6.6h-2.3l-2.4-6.1h-3V17
				C73.2,16.7,73.4,16.7,73.4,16.7z M75.9,8.7c1.3,0,2.9-0.5,2.9-2.9V5.6c0-2.5-1.6-2.9-2.9-2.9h-2.6v5.9L75.9,8.7L75.9,8.7z"/>
		</g>
		<g>
			<path class="st0" d="M84.7,9.2V8.5c0-5.4,1.9-7.7,5.6-7.7c3.8,0,5.6,2.3,5.6,7.7v0.8c0,5.4-1.9,7.7-5.6,7.7S84.7,14.6,84.7,9.2z
				 M90.5,15.2c2.4,0,3.4-1.9,3.4-6V8.5c0-4.1-1-6-3.4-6h-0.1c-2.4,0-3.4,1.9-3.4,6v0.8C87,13.3,88,15.2,90.5,15.2L90.5,15.2z"/>
		</g>
		<g>
			<path class="st0" d="M100.4,16.7V0.9h2.1v14h6.4v1.9L100.4,16.7L100.4,16.7C100.3,16.7,100.4,16.7,100.4,16.7z"/>
		</g>
		<g>
			<path class="st0" d="M112.6,16.7V0.9h2.1v14h6.4v1.9L112.6,16.7L112.6,16.7C112.5,16.7,112.6,16.7,112.6,16.7z"/>
		</g>
		<g>
			<path class="st0" d="M131,0.8l4.4,16h-2.3l-1-3.8H127l-1,3.8h-2.3l4.4-16C128.1,0.8,131,0.8,131,0.8z M127.5,11h4.1l-2-8
				L127.5,11z"/>
		</g>
		<g>
			<path class="st0" d="M143.6,16.7h-4.4V0.9h4.4c4.1,0,6.3,2,6.3,7.6v0.8C149.9,14.6,147.8,16.7,143.6,16.7z M143.5,14.9
				c2.9,0,4.3-1.6,4.3-5.7V8.4c0-4.1-1.4-5.7-4.3-5.7h-2.1v12.1L143.5,14.9L143.5,14.9z"/>
		</g>
		<g>
			<path class="st0" d="M153.9,9.2V8.5c0-5.4,1.9-7.7,5.6-7.7c3.7,0,5.6,2.3,5.6,7.7v0.8c0,5.4-1.9,7.7-5.6,7.7
				C155.8,17,153.9,14.6,153.9,9.2z M159.6,15.2c2.4,0,3.4-1.9,3.4-6V8.5c0-4.1-1-6-3.4-6h-0.1c-2.4,0-3.4,1.9-3.4,6v0.8
				c0,4.1,1,6,3.4,6h0.1V15.2z"/>
		</g>
		<g>
			<path class="st0" d="M177.7,16.7h-2.1V0.9h4.6c2.4,0,5,0.8,5,4.7V6c0,3.9-2.6,4.7-5,4.7h-2.5V16.7z M180.3,8.7
				c1.3,0,2.9-0.5,2.9-2.9V5.6c0-2.5-1.6-2.9-2.9-2.9h-2.6v5.9L180.3,8.7L180.3,8.7z"/>
		</g>
		<g>
			<path class="st0" d="M188.9,9.2V8.5c0-5.4,1.9-7.7,5.6-7.7s5.6,2.3,5.6,7.7v0.8c0,5.4-1.9,7.7-5.6,7.7
				C190.7,17,188.9,14.6,188.9,9.2z M194.5,15.2c2.4,0,3.4-1.9,3.4-6V8.5c0-4.1-1-6-3.4-6h-0.1c-2.4,0-3.4,1.9-3.4,6v0.8
				c0,4.1,1,6,3.4,6h0.1V15.2z"/>
		</g>
		<g>
			<path class="st0" d="M206.6,16.7h-2.1V0.9h4.6c2.4,0,5,0.8,5,4.7V6c0,2.5-1.1,3.8-2.6,4.4l2.6,6.6h-2.3l-2.4-6.1h-3.1L206.6,16.7
				L206.6,16.7z M209.2,8.7c1.3,0,2.9-0.5,2.9-2.9V5.6c0-2.5-1.6-2.9-2.9-2.9h-2.6v5.9L209.2,8.7L209.2,8.7z"/>
		</g>
	</g>
	<g>
		<g>
			<g>
				<rect x="-0.8" y="197.2" class="st1" width="160.8" height="4.4"/>
			</g>
		</g>
		<g>
			<g>
				<rect x="-0.8" y="197.2" class="st1" width="160.8" height="4.4"/>
			</g>
		</g>
	</g>
</g>
<g>
	<g>
		<g>
			<defs>
				<path id="SVGID_1_" d="M77.4,83.2c4.7,9.7,4,20.5-1,29c-2.8,4.9-7,8.9-12.4,11.5c-9.2,4.5-19.7,3.6-28.1-1.4
					c-0.4,0.6-0.8,1.2-1.2,1.8c-0.4,0.6-0.8,1.2-1.2,1.8c8,5.4,18.2,7.1,27.8,4.1c1.5-0.5,2.9-1,4.4-1.7c8-3.9,13.6-10.6,16.3-18.4
					c2.4-6.9,2.4-14.7-0.3-22c-0.3-0.9-0.7-1.8-1.1-2.6c-3.1-6.3-7.9-11.1-13.6-14.2C71.3,74.1,75,78.2,77.4,83.2"/>
			</defs>
			<use xlink:href="#SVGID_1_"  style="overflow:visible;fill:#FFFFFF;"/>
			<clipPath id="SVGID_00000054244712761326824930000000992681956374341555_">
				<use xlink:href="#SVGID_1_"  style="overflow:visible;"/>
			</clipPath>
		</g>
	</g>
	<text transform="matrix(1 0 0 1 24.8072 137.6554)"><tspan x="0" y="0" class="st0 st2 st3 st4">             </tspan><tspan x="86.8" y="0" class="st0 st2 st3"> </tspan></text>
	<g>
		<g>
			<path class="st0" d="M115.8,131.4c0-0.7,0.1-1.5,0.4-2.2c0.3-0.7,0.7-1.4,1.2-2c0.5-0.6,1.2-1.1,2-1.4c0.8-0.4,1.6-0.5,2.6-0.5
				c1.2,0,2.2,0.3,3,0.7c0.9,0.5,1.5,1.2,1.9,2l-2.2,1.5c-0.1-0.3-0.3-0.6-0.5-0.8c-0.2-0.2-0.5-0.4-0.7-0.5
				c-0.3-0.1-0.5-0.2-0.8-0.3c-0.3-0.1-0.5-0.1-0.8-0.1c-0.5,0-1,0.1-1.4,0.3c-0.4,0.2-0.7,0.5-1,0.9c-0.3,0.3-0.5,0.7-0.6,1.2
				c-0.1,0.4-0.2,0.9-0.2,1.3c0,0.5,0.1,1,0.2,1.4c0.2,0.5,0.4,0.9,0.7,1.2c0.3,0.3,0.6,0.6,1,0.8c0.4,0.2,0.9,0.3,1.4,0.3
				c0.3,0,0.5,0,0.8-0.1c0.3-0.1,0.5-0.2,0.8-0.3c0.2-0.1,0.5-0.3,0.7-0.5c0.2-0.2,0.4-0.5,0.5-0.8l2.3,1.4
				c-0.2,0.5-0.5,0.9-0.8,1.2c-0.4,0.4-0.8,0.7-1.3,0.9c-0.5,0.2-1,0.4-1.5,0.6c-0.5,0.1-1.1,0.2-1.6,0.2c-0.9,0-1.7-0.2-2.5-0.5
				c-0.7-0.4-1.4-0.9-1.9-1.5c-0.5-0.6-1-1.3-1.3-2.1C115.9,132.9,115.8,132.2,115.8,131.4z"/>
			<path class="st0" d="M134,137.8c-0.8,0-1.5-0.1-2.1-0.4c-0.6-0.3-1.1-0.6-1.5-1c-0.4-0.4-0.7-0.9-0.9-1.5
				c-0.2-0.6-0.3-1.2-0.3-1.8c0-0.6,0.1-1.2,0.3-1.8c0.2-0.6,0.5-1.1,0.9-1.5c0.4-0.4,0.9-0.8,1.5-1c0.6-0.3,1.3-0.4,2.1-0.4
				s1.5,0.1,2.1,0.4c0.6,0.3,1.1,0.6,1.5,1c0.4,0.4,0.7,0.9,1,1.5c0.2,0.6,0.3,1.2,0.3,1.8c0,0.6-0.1,1.2-0.3,1.8
				c-0.2,0.6-0.5,1.1-1,1.5c-0.4,0.4-0.9,0.8-1.5,1C135.5,137.7,134.8,137.8,134,137.8z M132,133.1c0,0.7,0.2,1.3,0.6,1.7
				c0.4,0.4,0.9,0.7,1.5,0.7c0.3,0,0.6-0.1,0.8-0.2c0.2-0.1,0.5-0.3,0.6-0.5c0.2-0.2,0.3-0.5,0.4-0.8c0.1-0.3,0.2-0.6,0.2-1
				c0-0.7-0.2-1.3-0.6-1.7c-0.4-0.4-0.9-0.7-1.4-0.7c-0.3,0-0.6,0.1-0.8,0.2c-0.3,0.1-0.5,0.3-0.6,0.5c-0.2,0.2-0.3,0.5-0.4,0.8
				C132,132.4,132,132.7,132,133.1z"/>
			<path class="st0" d="M146,137.8c-0.8,0-1.5-0.1-2.1-0.4c-0.6-0.3-1.1-0.6-1.5-1c-0.4-0.4-0.7-0.9-1-1.5c-0.2-0.6-0.3-1.2-0.3-1.8
				c0-0.6,0.1-1.2,0.3-1.8c0.2-0.6,0.5-1.1,1-1.5c0.4-0.4,0.9-0.8,1.5-1c0.6-0.3,1.3-0.4,2.1-0.4c0.8,0,1.5,0.1,2.1,0.4
				c0.6,0.3,1.1,0.6,1.5,1c0.4,0.4,0.7,0.9,1,1.5c0.2,0.6,0.3,1.2,0.3,1.8c0,0.6-0.1,1.2-0.3,1.8c-0.2,0.6-0.5,1.1-1,1.5
				c-0.4,0.4-0.9,0.8-1.5,1C147.5,137.7,146.8,137.8,146,137.8z M144,133.1c0,0.7,0.2,1.3,0.6,1.7c0.4,0.4,0.9,0.7,1.5,0.7
				c0.3,0,0.6-0.1,0.8-0.2c0.2-0.1,0.5-0.3,0.6-0.5c0.2-0.2,0.3-0.5,0.4-0.8c0.1-0.3,0.2-0.6,0.2-1c0-0.7-0.2-1.3-0.6-1.7
				s-0.9-0.7-1.4-0.7c-0.3,0-0.6,0.1-0.8,0.2c-0.3,0.1-0.5,0.3-0.6,0.5c-0.2,0.2-0.3,0.5-0.4,0.8C144.1,132.4,144,132.7,144,133.1z"
				/>
			<path class="st0" d="M159.5,130.9c-0.7,0-1.3,0.1-1.8,0.3c-0.5,0.2-0.9,0.5-1.2,0.9v5.5h-2.8v-9.2h2.6v1.8
				c0.3-0.6,0.7-1.1,1.2-1.4c0.5-0.3,1-0.5,1.6-0.5c0.1,0,0.2,0,0.3,0c0.1,0,0.1,0,0.2,0V130.9z"/>
			<path class="st0" d="M165.4,137.8c-0.6,0-1.2-0.1-1.7-0.4c-0.5-0.2-1-0.6-1.4-1c-0.4-0.4-0.7-0.9-0.9-1.5
				c-0.2-0.6-0.3-1.2-0.3-1.9c0-0.7,0.1-1.3,0.3-1.9c0.2-0.6,0.5-1.1,0.8-1.5c0.4-0.4,0.8-0.8,1.3-1c0.5-0.2,1-0.4,1.6-0.4
				c0.6,0,1.2,0.2,1.7,0.5s0.9,0.7,1.2,1.2v-5.1h2.8v9.6c0,0.3,0,0.5,0.1,0.6c0.1,0.1,0.2,0.2,0.5,0.2v2.4c-0.3,0.1-0.5,0.1-0.7,0.1
				c-0.2,0-0.4,0-0.5,0c-0.5,0-0.9-0.1-1.2-0.3c-0.3-0.2-0.5-0.5-0.5-0.9l-0.1-0.5c-0.3,0.6-0.8,1-1.3,1.3
				C166.7,137.7,166.1,137.8,165.4,137.8z M166.2,135.5c0.4,0,0.8-0.1,1.1-0.3c0.4-0.2,0.6-0.5,0.8-0.9v-1.9
				c-0.2-0.5-0.5-0.8-0.8-1.1c-0.4-0.3-0.8-0.4-1.2-0.4c-0.3,0-0.6,0.1-0.8,0.2c-0.3,0.1-0.5,0.3-0.7,0.5c-0.2,0.2-0.3,0.5-0.4,0.8
				c-0.1,0.3-0.1,0.6-0.1,0.9c0,0.3,0.1,0.7,0.2,0.9c0.1,0.3,0.3,0.5,0.5,0.7c0.2,0.2,0.4,0.4,0.7,0.5
				C165.6,135.4,165.9,135.5,166.2,135.5z"/>
			<path class="st0" d="M174.4,127.5v-2.5h2.8v2.5H174.4z M174.4,137.7v-9.2h2.8v9.2H174.4z"/>
			<path class="st0" d="M189.4,137.7h-2.8v-5.1c0-0.6-0.1-1-0.3-1.3s-0.5-0.4-0.9-0.4c-0.2,0-0.4,0-0.6,0.1
				c-0.2,0.1-0.4,0.2-0.6,0.3c-0.2,0.1-0.4,0.3-0.5,0.5c-0.1,0.2-0.3,0.4-0.3,0.6v5.2h-2.8v-9.2h2.5v1.5c0.3-0.5,0.8-1,1.4-1.3
				c0.6-0.3,1.3-0.4,2.1-0.4c0.6,0,1.1,0.1,1.4,0.3c0.4,0.2,0.6,0.5,0.8,0.8c0.2,0.3,0.3,0.7,0.4,1.1c0.1,0.4,0.1,0.8,0.1,1.2V137.7
				z"/>
			<path class="st0" d="M195.2,137.8c-0.5,0-0.9-0.1-1.3-0.2c-0.4-0.1-0.7-0.3-1-0.6c-0.3-0.3-0.5-0.6-0.7-0.9
				c-0.2-0.4-0.2-0.7-0.2-1.2c0-0.5,0.1-0.9,0.3-1.2c0.2-0.4,0.5-0.7,0.8-1c0.3-0.3,0.8-0.5,1.2-0.6c0.5-0.2,1-0.2,1.6-0.2
				c0.4,0,0.8,0,1.1,0.1c0.4,0.1,0.7,0.2,0.9,0.3v-0.4c0-1.1-0.6-1.6-1.8-1.6c-0.5,0-1,0.1-1.4,0.3c-0.5,0.2-0.9,0.4-1.4,0.8
				l-0.8-1.7c0.6-0.4,1.2-0.7,1.9-0.9c0.7-0.2,1.3-0.3,2.1-0.3c1.4,0,2.5,0.3,3.2,1c0.8,0.7,1.1,1.6,1.1,2.9v2.4
				c0,0.3,0,0.5,0.1,0.6c0.1,0.1,0.2,0.2,0.5,0.2v2.4c-0.2,0.1-0.5,0.1-0.7,0.1c-0.2,0-0.4,0-0.5,0c-0.5,0-0.9-0.1-1.2-0.3
				c-0.3-0.2-0.4-0.5-0.5-0.9l-0.1-0.4c-0.4,0.5-0.9,0.9-1.5,1.2C196.4,137.7,195.8,137.8,195.2,137.8z M196,135.8
				c0.3,0,0.6-0.1,0.9-0.2c0.3-0.1,0.5-0.2,0.7-0.4c0.3-0.2,0.4-0.4,0.4-0.7v-0.9c-0.2-0.1-0.5-0.2-0.8-0.2
				c-0.3-0.1-0.5-0.1-0.8-0.1c-0.5,0-0.9,0.1-1.3,0.3c-0.3,0.2-0.5,0.5-0.5,0.9c0,0.3,0.1,0.6,0.4,0.8
				C195.3,135.7,195.6,135.8,196,135.8z"/>
			<path class="st0" d="M203.7,133.1c0-0.6,0.1-1.2,0.3-1.8c0.2-0.6,0.5-1.1,1-1.5c0.4-0.4,0.9-0.8,1.5-1c0.6-0.3,1.3-0.4,2.1-0.4
				c1.1,0,1.9,0.2,2.7,0.7c0.7,0.4,1.3,1,1.6,1.8l-2.7,0.8c-0.4-0.6-0.9-0.9-1.6-0.9c-0.6,0-1.1,0.2-1.5,0.6c-0.4,0.4-0.6,1-0.6,1.7
				c0,0.4,0.1,0.7,0.2,1c0.1,0.3,0.2,0.5,0.4,0.8c0.2,0.2,0.4,0.4,0.7,0.5c0.3,0.1,0.5,0.2,0.8,0.2c0.3,0,0.7-0.1,1-0.3
				c0.3-0.2,0.5-0.4,0.6-0.7l2.7,0.8c-0.3,0.7-0.9,1.3-1.6,1.7c-0.7,0.5-1.6,0.7-2.7,0.7c-0.8,0-1.5-0.1-2.1-0.4
				c-0.6-0.3-1.1-0.6-1.6-1c-0.4-0.4-0.7-0.9-1-1.5C203.8,134.3,203.7,133.7,203.7,133.1z"/>
			<path class="st0" d="M215.5,127.5v-2.5h2.8v2.5H215.5z M215.5,137.7v-9.2h2.8v9.2H215.5z"/>
			<path class="st0" d="M226,137.8c-0.8,0-1.5-0.1-2.1-0.4c-0.6-0.3-1.1-0.6-1.5-1c-0.4-0.4-0.7-0.9-1-1.5c-0.2-0.6-0.3-1.2-0.3-1.8
				c0-0.6,0.1-1.2,0.3-1.8c0.2-0.6,0.5-1.1,1-1.5c0.4-0.4,0.9-0.8,1.5-1c0.6-0.3,1.3-0.4,2.1-0.4c0.8,0,1.5,0.1,2.1,0.4
				c0.6,0.3,1.1,0.6,1.5,1c0.4,0.4,0.7,0.9,1,1.5c0.2,0.6,0.3,1.2,0.3,1.8c0,0.6-0.1,1.2-0.3,1.8c-0.2,0.6-0.5,1.1-1,1.5
				c-0.4,0.4-0.9,0.8-1.5,1C227.5,137.7,226.8,137.8,226,137.8z M224,133.1c0,0.7,0.2,1.3,0.6,1.7c0.4,0.4,0.9,0.7,1.5,0.7
				c0.3,0,0.6-0.1,0.8-0.2c0.2-0.1,0.5-0.3,0.6-0.5c0.2-0.2,0.3-0.5,0.4-0.8c0.1-0.3,0.2-0.6,0.2-1c0-0.7-0.2-1.3-0.6-1.7
				c-0.4-0.4-0.9-0.7-1.4-0.7c-0.3,0-0.6,0.1-0.8,0.2c-0.3,0.1-0.5,0.3-0.6,0.5c-0.2,0.2-0.3,0.5-0.4,0.8
				C224,132.4,224,132.7,224,133.1z M226.8,127.7l-1.8-0.5l0.9-2.3h2.5L226.8,127.7z"/>
			<path class="st0" d="M242.5,137.7h-2.8v-5.1c0-0.6-0.1-1-0.3-1.3s-0.5-0.4-0.9-0.4c-0.2,0-0.4,0-0.6,0.1
				c-0.2,0.1-0.4,0.2-0.6,0.3c-0.2,0.1-0.4,0.3-0.5,0.5c-0.1,0.2-0.3,0.4-0.3,0.6v5.2h-2.8v-9.2h2.5v1.5c0.3-0.5,0.8-1,1.4-1.3
				c0.6-0.3,1.3-0.4,2.1-0.4c0.6,0,1.1,0.1,1.4,0.3c0.4,0.2,0.6,0.5,0.8,0.8c0.2,0.3,0.3,0.7,0.4,1.1c0.1,0.4,0.1,0.8,0.1,1.2V137.7
				z"/>
			<path class="st0" d="M255,137.8c-0.6,0-1.2-0.1-1.7-0.4c-0.5-0.2-1-0.6-1.4-1c-0.4-0.4-0.7-0.9-0.9-1.5c-0.2-0.6-0.3-1.2-0.3-1.9
				c0-0.7,0.1-1.3,0.3-1.9c0.2-0.6,0.5-1.1,0.8-1.5c0.4-0.4,0.8-0.8,1.3-1c0.5-0.2,1-0.4,1.6-0.4c0.6,0,1.2,0.2,1.7,0.5
				c0.5,0.3,0.9,0.7,1.2,1.2v-5.1h2.8v9.6c0,0.3,0,0.5,0.1,0.6c0.1,0.1,0.2,0.2,0.5,0.2v2.4c-0.3,0.1-0.5,0.1-0.7,0.1
				c-0.2,0-0.4,0-0.5,0c-0.5,0-0.9-0.1-1.2-0.3c-0.3-0.2-0.5-0.5-0.5-0.9l-0.1-0.5c-0.3,0.6-0.8,1-1.3,1.3
				C256.2,137.7,255.6,137.8,255,137.8z M255.8,135.5c0.4,0,0.8-0.1,1.1-0.3c0.4-0.2,0.6-0.5,0.8-0.9v-1.9c-0.2-0.5-0.5-0.8-0.8-1.1
				c-0.4-0.3-0.8-0.4-1.2-0.4c-0.3,0-0.6,0.1-0.8,0.2c-0.3,0.1-0.5,0.3-0.7,0.5c-0.2,0.2-0.3,0.5-0.4,0.8c-0.1,0.3-0.1,0.6-0.1,0.9
				c0,0.3,0.1,0.7,0.2,0.9c0.1,0.3,0.3,0.5,0.5,0.7c0.2,0.2,0.4,0.4,0.7,0.5C255.2,135.4,255.5,135.5,255.8,135.5z"/>
			<path class="st0" d="M268.4,137.8c-0.8,0-1.5-0.1-2.1-0.4c-0.6-0.3-1.1-0.6-1.6-1c-0.4-0.4-0.7-0.9-1-1.5
				c-0.2-0.6-0.3-1.2-0.3-1.8c0-0.7,0.1-1.3,0.3-1.9c0.2-0.6,0.5-1.1,1-1.5c0.4-0.4,0.9-0.8,1.5-1c0.6-0.3,1.3-0.4,2.1-0.4
				s1.5,0.1,2.1,0.4c0.6,0.3,1.1,0.6,1.5,1c0.4,0.4,0.7,0.9,1,1.5s0.3,1.2,0.3,1.8c0,0.2,0,0.3,0,0.5c0,0.2,0,0.3-0.1,0.4h-6.8
				c0,0.6,0.3,1.1,0.7,1.4c0.4,0.3,0.9,0.5,1.4,0.5c0.4,0,0.8-0.1,1.2-0.3c0.4-0.2,0.6-0.5,0.8-0.8l2.4,0.7
				c-0.4,0.7-0.9,1.3-1.7,1.8C270.4,137.6,269.5,137.8,268.4,137.8z M270.3,132.2c-0.1-0.6-0.3-1-0.6-1.4s-0.8-0.5-1.3-0.5
				c-0.5,0-1,0.2-1.4,0.5c-0.4,0.3-0.6,0.8-0.6,1.4H270.3z"/>
		</g>
	</g>
	<text transform="matrix(1 0 0 1 278.0357 137.6554)"><tspan x="0" y="0" class="st0 st2 st3 st4">  </tspan><tspan x="13.4" y="0" class="st0 st2 st3"> </tspan></text>
	<g>
		<g>
			<path class="st0" d="M5.8,156.7c0.7,0,1.2-0.1,1.6-0.4c0.4-0.3,0.8-0.6,1-1c0.3-0.4,0.4-0.9,0.6-1.4c0.1-0.5,0.2-1.1,0.2-1.6V146
				h2v6.3c0,0.8-0.1,1.6-0.3,2.4c-0.2,0.7-0.5,1.4-0.9,2c-0.4,0.6-1,1-1.7,1.3s-1.5,0.5-2.5,0.5c-1,0-1.8-0.2-2.5-0.5
				c-0.7-0.3-1.2-0.8-1.6-1.4c-0.4-0.6-0.7-1.2-0.9-2c-0.2-0.7-0.3-1.5-0.3-2.3V146h2v6.3c0,0.6,0.1,1.1,0.2,1.6
				c0.1,0.5,0.3,1,0.6,1.4s0.6,0.7,1,1C4.6,156.6,5.1,156.7,5.8,156.7z"/>
			<path class="st0" d="M21.5,158.4h-1.9v-5.1c0-0.9-0.1-1.5-0.4-1.9c-0.3-0.4-0.7-0.6-1.2-0.6c-0.3,0-0.6,0.1-0.8,0.2
				s-0.5,0.3-0.8,0.4c-0.2,0.2-0.5,0.4-0.7,0.7c-0.2,0.3-0.3,0.5-0.4,0.9v5.4h-1.9v-9.1h1.7v1.8c0.3-0.6,0.9-1.1,1.5-1.5
				c0.7-0.4,1.4-0.5,2.2-0.5c0.5,0,1,0.1,1.3,0.3c0.3,0.2,0.6,0.5,0.8,0.8c0.2,0.3,0.3,0.7,0.4,1.2c0.1,0.4,0.1,0.9,0.1,1.4V158.4z"
				/>
			<path class="st0" d="M23.6,147.8v-2.1h1.9v2.1H23.6z M23.6,158.4v-9.1h1.9v9.1H23.6z"/>
			<path class="st0" d="M30.2,158.4l-3.5-9.1h2l2.6,7.5l2.6-7.5h1.8l-3.5,9.1H30.2z"/>
			<path class="st0" d="M40.8,158.5c-0.7,0-1.4-0.1-1.9-0.4c-0.6-0.3-1.1-0.6-1.5-1c-0.4-0.4-0.7-0.9-1-1.5
				c-0.2-0.6-0.3-1.2-0.3-1.8c0-0.6,0.1-1.2,0.3-1.8c0.2-0.6,0.5-1.1,1-1.5c0.4-0.4,0.9-0.8,1.5-1c0.6-0.3,1.2-0.4,2-0.4
				c0.7,0,1.4,0.1,1.9,0.4c0.6,0.3,1.1,0.6,1.5,1c0.4,0.4,0.7,0.9,0.9,1.5c0.2,0.6,0.3,1.2,0.3,1.8c0,0.1,0,0.3,0,0.4
				c0,0.1,0,0.2,0,0.3h-7.3c0,0.4,0.1,0.8,0.3,1.1c0.2,0.3,0.4,0.6,0.6,0.8c0.3,0.2,0.5,0.4,0.9,0.5c0.3,0.1,0.7,0.2,1,0.2
				c0.3,0,0.5,0,0.8-0.1c0.2-0.1,0.5-0.2,0.7-0.3c0.2-0.1,0.4-0.3,0.6-0.4c0.2-0.2,0.3-0.4,0.4-0.6l1.6,0.5
				c-0.3,0.7-0.8,1.2-1.6,1.7C42.6,158.3,41.7,158.5,40.8,158.5z M43.5,153.1c0-0.4-0.1-0.7-0.3-1.1c-0.2-0.3-0.4-0.6-0.6-0.8
				c-0.2-0.2-0.5-0.4-0.9-0.5c-0.3-0.1-0.7-0.2-1-0.2c-0.4,0-0.7,0.1-1,0.2c-0.3,0.1-0.6,0.3-0.8,0.5c-0.2,0.2-0.4,0.5-0.6,0.8
				c-0.2,0.3-0.2,0.7-0.3,1.1H43.5z"/>
			<path class="st0" d="M52,150.9c-0.7,0-1.4,0.2-2,0.5c-0.6,0.3-1,0.8-1.2,1.4v5.6h-1.9v-9.1h1.8v2c0.3-0.6,0.7-1.1,1.2-1.5
				c0.5-0.4,1-0.6,1.6-0.6c0.1,0,0.2,0,0.3,0s0.1,0,0.2,0V150.9z"/>
			<path class="st0" d="M56.5,158.5c-0.7,0-1.5-0.1-2.2-0.4c-0.7-0.2-1.4-0.6-1.9-1l0.8-1.2c0.5,0.4,1.1,0.7,1.6,0.9
				c0.5,0.2,1.1,0.3,1.6,0.3c0.6,0,1-0.1,1.4-0.3c0.3-0.2,0.5-0.5,0.5-0.9c0-0.4-0.2-0.7-0.6-0.8c-0.4-0.2-1-0.4-1.7-0.6
				c-0.6-0.2-1.1-0.3-1.5-0.4c-0.4-0.1-0.7-0.3-1-0.5c-0.3-0.2-0.4-0.4-0.6-0.6c-0.1-0.2-0.2-0.5-0.2-0.9c0-0.5,0.1-0.9,0.3-1.2
				c0.2-0.4,0.4-0.7,0.7-0.9c0.3-0.3,0.7-0.4,1.1-0.6c0.4-0.1,0.9-0.2,1.4-0.2c0.7,0,1.3,0.1,1.9,0.3c0.6,0.2,1.1,0.5,1.6,0.9
				l-0.8,1.2c-0.8-0.7-1.7-1-2.7-1c-0.5,0-0.9,0.1-1.2,0.3s-0.5,0.5-0.5,1c0,0.2,0,0.3,0.1,0.5c0.1,0.1,0.2,0.2,0.3,0.3
				c0.2,0.1,0.4,0.2,0.6,0.3c0.2,0.1,0.6,0.2,0.9,0.3c0.6,0.2,1.1,0.3,1.6,0.5c0.4,0.2,0.8,0.3,1.1,0.5c0.3,0.2,0.5,0.4,0.6,0.7
				s0.2,0.6,0.2,1c0,0.9-0.3,1.6-1,2.1C58.5,158.3,57.7,158.5,56.5,158.5z"/>
			<path class="st0" d="M61.7,147.8v-2.1h1.9v2.1H61.7z M61.7,158.4v-9.1h1.9v9.1H61.7z"/>
			<path class="st0" d="M69.5,158.5c-0.6,0-1.2-0.1-1.7-0.4c-0.5-0.3-1-0.6-1.4-1c-0.4-0.4-0.7-0.9-0.9-1.5
				c-0.2-0.6-0.3-1.2-0.3-1.9c0-0.6,0.1-1.2,0.3-1.8c0.2-0.6,0.5-1.1,0.9-1.5c0.4-0.4,0.8-0.8,1.3-1c0.5-0.3,1-0.4,1.6-0.4
				c0.7,0,1.4,0.2,1.9,0.5c0.6,0.4,1,0.8,1.3,1.4v-5.3h1.9v10.5c0,0.2,0,0.4,0.1,0.5c0.1,0.1,0.2,0.1,0.4,0.2v1.6
				c-0.2,0-0.4,0.1-0.5,0.1c-0.1,0-0.2,0-0.3,0c-0.4,0-0.7-0.1-0.9-0.3c-0.2-0.2-0.4-0.5-0.4-0.8l0-0.7c-0.3,0.6-0.8,1-1.4,1.3
				S70.2,158.5,69.5,158.5z M70,156.9c0.3,0,0.6,0,0.8-0.1c0.3-0.1,0.5-0.2,0.8-0.4c0.2-0.2,0.4-0.4,0.6-0.6
				c0.2-0.2,0.3-0.5,0.4-0.7v-2.4c-0.1-0.3-0.3-0.6-0.4-0.8c-0.2-0.2-0.4-0.5-0.7-0.6c-0.2-0.2-0.5-0.3-0.8-0.4
				c-0.3-0.1-0.5-0.1-0.8-0.1c-0.4,0-0.7,0.1-1.1,0.3c-0.3,0.2-0.6,0.4-0.8,0.7c-0.2,0.3-0.4,0.6-0.5,1c-0.1,0.4-0.2,0.8-0.2,1.2
				c0,0.4,0.1,0.8,0.2,1.2c0.1,0.4,0.3,0.7,0.6,1c0.3,0.3,0.5,0.5,0.9,0.7C69.2,156.8,69.6,156.9,70,156.9z"/>
			<path class="st0" d="M79.1,158.5c-0.4,0-0.9-0.1-1.2-0.2c-0.4-0.1-0.7-0.3-1-0.6c-0.3-0.3-0.5-0.6-0.6-0.9
				c-0.2-0.3-0.2-0.7-0.2-1.1c0-0.4,0.1-0.8,0.3-1.2c0.2-0.3,0.5-0.7,0.8-0.9c0.3-0.3,0.7-0.5,1.2-0.6c0.5-0.1,1-0.2,1.6-0.2
				c0.4,0,0.9,0,1.3,0.1c0.4,0.1,0.8,0.2,1.1,0.3v-0.6c0-0.7-0.2-1.2-0.6-1.6c-0.4-0.4-0.9-0.6-1.7-0.6c-0.5,0-1,0.1-1.4,0.3
				c-0.5,0.2-1,0.4-1.5,0.8l-0.6-1.2c1.2-0.8,2.4-1.2,3.7-1.2c1.3,0,2.2,0.3,2.9,1c0.7,0.6,1,1.6,1,2.8v3.3c0,0.4,0.2,0.6,0.5,0.6
				v1.6c-0.2,0-0.3,0.1-0.5,0.1c-0.1,0-0.3,0-0.4,0c-0.4,0-0.7-0.1-0.9-0.3c-0.2-0.2-0.3-0.4-0.4-0.7l-0.1-0.6
				c-0.4,0.5-0.9,0.9-1.5,1.2C80.5,158.4,79.8,158.5,79.1,158.5z M79.7,157.1c0.5,0,0.9-0.1,1.3-0.3c0.4-0.2,0.7-0.4,1-0.7
				c0.2-0.2,0.4-0.4,0.4-0.7v-1.2c-0.3-0.1-0.7-0.2-1-0.3c-0.4-0.1-0.7-0.1-1.1-0.1c-0.7,0-1.2,0.1-1.7,0.4
				c-0.4,0.3-0.7,0.7-0.7,1.2c0,0.5,0.2,0.8,0.5,1.1C78.7,157,79.1,157.1,79.7,157.1z"/>
			<path class="st0" d="M90.1,158.5c-0.6,0-1.2-0.1-1.7-0.4c-0.5-0.3-1-0.6-1.4-1c-0.4-0.4-0.7-0.9-0.9-1.5
				c-0.2-0.6-0.3-1.2-0.3-1.9c0-0.6,0.1-1.2,0.3-1.8c0.2-0.6,0.5-1.1,0.9-1.5c0.4-0.4,0.8-0.8,1.3-1c0.5-0.3,1-0.4,1.6-0.4
				c0.7,0,1.4,0.2,1.9,0.5c0.6,0.4,1,0.8,1.3,1.4v-5.3h1.9v10.5c0,0.2,0,0.4,0.1,0.5c0.1,0.1,0.2,0.1,0.4,0.2v1.6
				c-0.2,0-0.4,0.1-0.5,0.1c-0.1,0-0.2,0-0.3,0c-0.4,0-0.7-0.1-0.9-0.3c-0.2-0.2-0.4-0.5-0.4-0.8l0-0.7c-0.3,0.6-0.8,1-1.4,1.3
				S90.8,158.5,90.1,158.5z M90.6,156.9c0.3,0,0.6,0,0.8-0.1c0.3-0.1,0.5-0.2,0.8-0.4c0.2-0.2,0.4-0.4,0.6-0.6
				c0.2-0.2,0.3-0.5,0.4-0.7v-2.4c-0.1-0.3-0.3-0.6-0.4-0.8c-0.2-0.2-0.4-0.5-0.7-0.6c-0.2-0.2-0.5-0.3-0.8-0.4
				c-0.3-0.1-0.5-0.1-0.8-0.1c-0.4,0-0.7,0.1-1.1,0.3c-0.3,0.2-0.6,0.4-0.8,0.7c-0.2,0.3-0.4,0.6-0.5,1c-0.1,0.4-0.2,0.8-0.2,1.2
				c0,0.4,0.1,0.8,0.2,1.2c0.1,0.4,0.3,0.7,0.6,1c0.3,0.3,0.5,0.5,0.9,0.7C89.8,156.8,90.2,156.9,90.6,156.9z"/>
			<path class="st0" d="M104.8,146h1.7l4.9,12.4h-2.1L108,155h-4.8l-1.3,3.4h-2.1L104.8,146z M107.6,153.6l-2-5.3l-2.1,5.3H107.6z"
				/>
			<path class="st0" d="M117.4,158.5c-0.7,0-1.3-0.2-1.9-0.5c-0.6-0.3-1-0.8-1.3-1.3v1.7h-1.7v-12.7h1.9v5.3c0.4-0.6,0.8-1,1.4-1.4
				s1.2-0.5,1.9-0.5c0.6,0,1.2,0.1,1.7,0.4c0.5,0.3,0.9,0.6,1.3,1c0.4,0.4,0.6,0.9,0.8,1.5c0.2,0.6,0.3,1.2,0.3,1.8
				c0,0.7-0.1,1.3-0.3,1.8c-0.2,0.6-0.5,1.1-0.9,1.5c-0.4,0.4-0.8,0.8-1.4,1C118.6,158.4,118.1,158.5,117.4,158.5z M116.9,156.9
				c0.4,0,0.8-0.1,1.2-0.3c0.3-0.2,0.6-0.4,0.9-0.7c0.3-0.3,0.4-0.6,0.6-1c0.1-0.4,0.2-0.8,0.2-1.2c0-0.4-0.1-0.8-0.2-1.2
				c-0.1-0.4-0.3-0.7-0.6-1c-0.2-0.3-0.5-0.5-0.9-0.7c-0.3-0.2-0.7-0.3-1.1-0.3c-0.6,0-1.1,0.2-1.6,0.6c-0.5,0.4-0.8,0.8-1.1,1.4
				v2.4c0.1,0.3,0.2,0.5,0.4,0.7s0.4,0.4,0.6,0.6c0.2,0.2,0.5,0.3,0.7,0.4C116.4,156.9,116.7,156.9,116.9,156.9z"/>
			<path class="st0" d="M123.3,147.8v-2.1h1.9v2.1H123.3z M123.3,158.4v-9.1h1.9v9.1H123.3z"/>
			<path class="st0" d="M131.5,158.5c-0.7,0-1.4-0.1-1.9-0.4c-0.6-0.3-1.1-0.6-1.5-1c-0.4-0.4-0.7-0.9-1-1.5
				c-0.2-0.6-0.3-1.2-0.3-1.8c0-0.6,0.1-1.2,0.3-1.8c0.2-0.6,0.5-1.1,1-1.5c0.4-0.4,0.9-0.8,1.5-1c0.6-0.3,1.2-0.4,2-0.4
				c0.7,0,1.4,0.1,1.9,0.4c0.6,0.3,1.1,0.6,1.5,1c0.4,0.4,0.7,0.9,0.9,1.5c0.2,0.6,0.3,1.2,0.3,1.8c0,0.1,0,0.3,0,0.4
				c0,0.1,0,0.2,0,0.3h-7.3c0,0.4,0.1,0.8,0.3,1.1c0.2,0.3,0.4,0.6,0.6,0.8c0.3,0.2,0.5,0.4,0.9,0.5c0.3,0.1,0.7,0.2,1,0.2
				c0.3,0,0.5,0,0.8-0.1c0.2-0.1,0.5-0.2,0.7-0.3c0.2-0.1,0.4-0.3,0.6-0.4c0.2-0.2,0.3-0.4,0.4-0.6l1.6,0.5
				c-0.3,0.7-0.8,1.2-1.6,1.7C133.3,158.3,132.5,158.5,131.5,158.5z M134.3,153.1c0-0.4-0.1-0.7-0.3-1.1c-0.2-0.3-0.4-0.6-0.6-0.8
				c-0.2-0.2-0.5-0.4-0.9-0.5c-0.3-0.1-0.7-0.2-1-0.2c-0.4,0-0.7,0.1-1,0.2c-0.3,0.1-0.6,0.3-0.8,0.5c-0.2,0.2-0.4,0.5-0.6,0.8
				c-0.2,0.3-0.2,0.7-0.3,1.1H134.3z"/>
			<path class="st0" d="M142.7,150.9c-0.7,0-1.4,0.2-2,0.5c-0.6,0.3-1,0.8-1.2,1.4v5.6h-1.9v-9.1h1.8v2c0.3-0.6,0.7-1.1,1.2-1.5
				c0.5-0.4,1-0.6,1.6-0.6c0.1,0,0.2,0,0.3,0s0.1,0,0.2,0V150.9z"/>
			<path class="st0" d="M149,157.9c-0.2,0.1-0.6,0.2-1,0.4c-0.4,0.1-0.9,0.2-1.4,0.2c-0.3,0-0.6,0-0.9-0.1c-0.3-0.1-0.5-0.2-0.7-0.4
				c-0.2-0.2-0.4-0.4-0.5-0.6c-0.1-0.3-0.2-0.6-0.2-1v-5.7h-1.2v-1.5h1.2v-3h1.9v3h2v1.5h-2v5.1c0,0.3,0.1,0.6,0.3,0.7
				c0.2,0.1,0.4,0.2,0.7,0.2c0.3,0,0.5,0,0.8-0.1c0.2-0.1,0.4-0.2,0.5-0.2L149,157.9z"/>
			<path class="st0" d="M152.6,158.5c-0.4,0-0.9-0.1-1.2-0.2c-0.4-0.1-0.7-0.3-1-0.6c-0.3-0.3-0.5-0.6-0.6-0.9
				c-0.2-0.3-0.2-0.7-0.2-1.1c0-0.4,0.1-0.8,0.3-1.2c0.2-0.3,0.5-0.7,0.8-0.9c0.3-0.3,0.7-0.5,1.2-0.6s1-0.2,1.6-0.2
				c0.4,0,0.9,0,1.3,0.1c0.4,0.1,0.8,0.2,1.1,0.3v-0.6c0-0.7-0.2-1.2-0.6-1.6c-0.4-0.4-0.9-0.6-1.7-0.6c-0.5,0-1,0.1-1.4,0.3
				c-0.5,0.2-1,0.4-1.5,0.8l-0.6-1.2c1.2-0.8,2.4-1.2,3.7-1.2c1.3,0,2.2,0.3,2.9,1s1,1.6,1,2.8v3.3c0,0.4,0.2,0.6,0.5,0.6v1.6
				c-0.2,0-0.3,0.1-0.5,0.1c-0.1,0-0.3,0-0.4,0c-0.4,0-0.7-0.1-0.9-0.3c-0.2-0.2-0.3-0.4-0.4-0.7l-0.1-0.6c-0.4,0.5-0.9,0.9-1.5,1.2
				C154,158.4,153.3,158.5,152.6,158.5z M153.2,157.1c0.5,0,0.9-0.1,1.3-0.3s0.7-0.4,1-0.7c0.2-0.2,0.4-0.4,0.4-0.7v-1.2
				c-0.3-0.1-0.7-0.2-1-0.3c-0.4-0.1-0.7-0.1-1.1-0.1c-0.7,0-1.2,0.1-1.7,0.4c-0.4,0.3-0.7,0.7-0.7,1.2c0,0.5,0.2,0.8,0.5,1.1
				S152.6,157.1,153.2,157.1z"/>
			<path class="st0" d="M163.9,160.5c0.2,0,0.3,0.1,0.5,0.1c0.2,0,0.3,0,0.4,0c0.2,0,0.3,0,0.4-0.1c0.1-0.1,0.2-0.2,0.3-0.3
				c0.1-0.2,0.2-0.4,0.4-0.7c0.1-0.3,0.3-0.7,0.4-1.1l-3.7-9.1h2l2.8,7.4l2.5-7.4h1.8l-4.1,11.2c-0.2,0.5-0.5,1-1,1.3
				c-0.5,0.4-1,0.5-1.8,0.5c-0.1,0-0.3,0-0.4,0c-0.2,0-0.3-0.1-0.5-0.1V160.5z"/>
			<path class="st0" d="M185.3,156.6v1.7h-8.5V146h8.3v1.7h-6.4v3.5h5.5v1.6h-5.5v3.8H185.3z"/>
			<path class="st0" d="M190.2,158.5c-0.6,0-1.2-0.1-1.7-0.4c-0.5-0.3-1-0.6-1.4-1c-0.4-0.4-0.7-0.9-0.9-1.5
				c-0.2-0.6-0.3-1.2-0.3-1.9c0-0.6,0.1-1.2,0.3-1.8c0.2-0.6,0.5-1.1,0.9-1.5c0.4-0.4,0.8-0.8,1.3-1c0.5-0.3,1-0.4,1.6-0.4
				c0.7,0,1.4,0.2,1.9,0.5c0.6,0.4,1,0.8,1.3,1.4v-5.3h1.9v10.5c0,0.2,0,0.4,0.1,0.5c0.1,0.1,0.2,0.1,0.4,0.2v1.6
				c-0.2,0-0.4,0.1-0.5,0.1c-0.1,0-0.2,0-0.3,0c-0.4,0-0.7-0.1-0.9-0.3c-0.2-0.2-0.4-0.5-0.4-0.8l0-0.7c-0.3,0.6-0.8,1-1.4,1.3
				C191.6,158.4,191,158.5,190.2,158.5z M190.7,156.9c0.3,0,0.6,0,0.8-0.1c0.3-0.1,0.5-0.2,0.8-0.4c0.2-0.2,0.4-0.4,0.6-0.6
				c0.2-0.2,0.3-0.5,0.4-0.7v-2.4c-0.1-0.3-0.3-0.6-0.4-0.8c-0.2-0.2-0.4-0.5-0.7-0.6c-0.2-0.2-0.5-0.3-0.8-0.4
				c-0.3-0.1-0.5-0.1-0.8-0.1c-0.4,0-0.7,0.1-1.1,0.3c-0.3,0.2-0.6,0.4-0.8,0.7c-0.2,0.3-0.4,0.6-0.5,1c-0.1,0.4-0.2,0.8-0.2,1.2
				c0,0.4,0.1,0.8,0.2,1.2c0.1,0.4,0.3,0.7,0.6,1c0.3,0.3,0.5,0.5,0.9,0.7C190,156.8,190.3,156.9,190.7,156.9z"/>
			<path class="st0" d="M200.3,158.5c-1,0-1.7-0.3-2.2-0.9c-0.5-0.6-0.7-1.5-0.7-2.8v-5.6h1.9v5.2c0,1.6,0.6,2.5,1.7,2.5
				c0.5,0,1.1-0.2,1.6-0.5c0.5-0.3,0.9-0.8,1.1-1.5v-5.7h1.9v6.9c0,0.2,0,0.4,0.1,0.5c0.1,0.1,0.2,0.1,0.4,0.2v1.6
				c-0.2,0-0.4,0.1-0.5,0.1c-0.1,0-0.3,0-0.4,0c-0.3,0-0.6-0.1-0.9-0.3c-0.2-0.2-0.4-0.4-0.4-0.7l0-0.9c-0.4,0.7-0.9,1.2-1.6,1.5
				C201.8,158.4,201.1,158.5,200.3,158.5z"/>
			<path class="st0" d="M207.3,153.8c0-0.6,0.1-1.2,0.3-1.8c0.2-0.6,0.5-1.1,1-1.5c0.4-0.4,0.9-0.8,1.5-1c0.6-0.3,1.2-0.4,2-0.4
				c0.9,0,1.8,0.2,2.4,0.6c0.7,0.4,1.2,1,1.5,1.6l-1.9,0.6c-0.2-0.4-0.5-0.7-0.9-0.9c-0.4-0.2-0.8-0.3-1.2-0.3
				c-0.4,0-0.7,0.1-1.1,0.2c-0.3,0.2-0.6,0.4-0.9,0.6s-0.4,0.6-0.6,1c-0.1,0.4-0.2,0.8-0.2,1.2c0,0.4,0.1,0.9,0.2,1.2
				c0.1,0.4,0.3,0.7,0.6,1c0.2,0.3,0.5,0.5,0.9,0.7c0.3,0.2,0.7,0.2,1.1,0.2c0.2,0,0.5,0,0.7-0.1c0.2-0.1,0.4-0.2,0.6-0.3
				c0.2-0.1,0.4-0.2,0.5-0.4c0.1-0.2,0.3-0.3,0.3-0.5l1.9,0.6c-0.3,0.7-0.8,1.2-1.5,1.7c-0.7,0.4-1.5,0.7-2.5,0.7
				c-0.7,0-1.4-0.1-1.9-0.4c-0.6-0.3-1.1-0.6-1.5-1c-0.4-0.4-0.7-0.9-1-1.5C207.4,155,207.3,154.4,207.3,153.8z"/>
			<path class="st0" d="M219.9,158.5c-0.4,0-0.9-0.1-1.2-0.2c-0.4-0.1-0.7-0.3-1-0.6c-0.3-0.3-0.5-0.6-0.6-0.9
				c-0.2-0.3-0.2-0.7-0.2-1.1c0-0.4,0.1-0.8,0.3-1.2c0.2-0.3,0.5-0.7,0.8-0.9c0.3-0.3,0.8-0.5,1.2-0.6c0.5-0.1,1-0.2,1.6-0.2
				c0.4,0,0.9,0,1.3,0.1c0.4,0.1,0.8,0.2,1.1,0.3v-0.6c0-0.7-0.2-1.2-0.6-1.6c-0.4-0.4-0.9-0.6-1.7-0.6c-0.5,0-1,0.1-1.4,0.3
				c-0.5,0.2-1,0.4-1.5,0.8l-0.6-1.2c1.2-0.8,2.4-1.2,3.7-1.2c1.3,0,2.2,0.3,2.9,1c0.7,0.6,1,1.6,1,2.8v3.3c0,0.4,0.2,0.6,0.5,0.6
				v1.6c-0.2,0-0.3,0.1-0.5,0.1c-0.1,0-0.3,0-0.4,0c-0.4,0-0.7-0.1-0.9-0.3c-0.2-0.2-0.3-0.4-0.4-0.7l-0.1-0.6
				c-0.4,0.5-0.9,0.9-1.5,1.2C221.3,158.4,220.6,158.5,219.9,158.5z M220.5,157.1c0.5,0,0.9-0.1,1.3-0.3s0.7-0.4,1-0.7
				c0.2-0.2,0.4-0.4,0.4-0.7v-1.2c-0.3-0.1-0.7-0.2-1-0.3c-0.4-0.1-0.7-0.1-1.1-0.1c-0.7,0-1.2,0.1-1.7,0.4
				c-0.4,0.3-0.7,0.7-0.7,1.2c0,0.5,0.2,0.8,0.5,1.1S219.9,157.1,220.5,157.1z"/>
			<path class="st0" d="M226.6,153.8c0-0.6,0.1-1.2,0.3-1.8c0.2-0.6,0.5-1.1,1-1.5c0.4-0.4,0.9-0.8,1.5-1c0.6-0.3,1.2-0.4,2-0.4
				c0.9,0,1.8,0.2,2.4,0.6c0.7,0.4,1.2,1,1.5,1.6l-1.9,0.6c-0.2-0.4-0.5-0.7-0.9-0.9c-0.4-0.2-0.8-0.3-1.2-0.3
				c-0.4,0-0.7,0.1-1.1,0.2c-0.3,0.2-0.6,0.4-0.9,0.6s-0.4,0.6-0.6,1c-0.1,0.4-0.2,0.8-0.2,1.2c0,0.4,0.1,0.9,0.2,1.2
				c0.1,0.4,0.3,0.7,0.6,1c0.2,0.3,0.5,0.5,0.9,0.7c0.3,0.2,0.7,0.2,1.1,0.2c0.2,0,0.5,0,0.7-0.1c0.2-0.1,0.4-0.2,0.6-0.3
				c0.2-0.1,0.4-0.2,0.5-0.4c0.1-0.2,0.3-0.3,0.3-0.5l1.9,0.6c-0.3,0.7-0.8,1.2-1.5,1.7c-0.7,0.4-1.5,0.7-2.5,0.7
				c-0.7,0-1.4-0.1-1.9-0.4c-0.6-0.3-1.1-0.6-1.5-1c-0.4-0.4-0.7-0.9-1-1.5C226.7,155,226.6,154.4,226.6,153.8z"/>
			<path class="st0" d="M236.8,147.8v-2.1h1.9v2.1H236.8z M236.8,158.4v-9.1h1.9v9.1H236.8z"/>
			<path class="st0" d="M244.9,158.5c-0.7,0-1.4-0.1-1.9-0.4c-0.6-0.3-1.1-0.6-1.5-1c-0.4-0.4-0.7-0.9-0.9-1.5
				c-0.2-0.6-0.3-1.2-0.3-1.8c0-0.6,0.1-1.2,0.3-1.8c0.2-0.6,0.5-1.1,1-1.5c0.4-0.4,0.9-0.8,1.5-1c0.6-0.3,1.2-0.4,1.9-0.4
				c0.7,0,1.4,0.1,1.9,0.4c0.6,0.3,1.1,0.6,1.5,1c0.4,0.4,0.7,0.9,1,1.5c0.2,0.6,0.3,1.2,0.3,1.8c0,0.6-0.1,1.2-0.3,1.8
				c-0.2,0.6-0.5,1.1-1,1.5c-0.4,0.4-0.9,0.8-1.5,1C246.3,158.4,245.6,158.5,244.9,158.5z M242.2,153.8c0,0.4,0.1,0.8,0.2,1.2
				c0.1,0.4,0.3,0.7,0.6,1c0.2,0.3,0.5,0.5,0.9,0.6c0.3,0.2,0.7,0.2,1.1,0.2s0.7-0.1,1.1-0.2c0.3-0.2,0.6-0.4,0.9-0.7s0.4-0.6,0.6-1
				c0.1-0.4,0.2-0.8,0.2-1.2c0-0.4-0.1-0.8-0.2-1.2c-0.1-0.4-0.3-0.7-0.6-1c-0.2-0.3-0.5-0.5-0.9-0.7c-0.3-0.2-0.7-0.2-1.1-0.2
				c-0.4,0-0.7,0.1-1.1,0.2c-0.3,0.2-0.6,0.4-0.9,0.7c-0.2,0.3-0.4,0.6-0.6,1C242.3,153,242.2,153.4,242.2,153.8z M245.4,147.9
				l-1.3-0.4l1-1.9h1.8L245.4,147.9z"/>
			<path class="st0" d="M259.4,158.4h-1.9v-5.1c0-0.9-0.1-1.5-0.4-1.9c-0.3-0.4-0.7-0.6-1.2-0.6c-0.3,0-0.6,0.1-0.8,0.2
				c-0.3,0.1-0.5,0.3-0.8,0.4c-0.2,0.2-0.5,0.4-0.7,0.7c-0.2,0.3-0.3,0.5-0.4,0.9v5.4h-1.9v-9.1h1.7v1.8c0.3-0.6,0.9-1.1,1.5-1.5
				c0.7-0.4,1.4-0.5,2.2-0.5c0.5,0,1,0.1,1.3,0.3c0.3,0.2,0.6,0.5,0.8,0.8c0.2,0.3,0.3,0.7,0.4,1.2c0.1,0.4,0.1,0.9,0.1,1.4V158.4z"
				/>
			<path class="st0" d="M265.8,158.4V146h4.4c1,0,1.9,0.2,2.6,0.5c0.7,0.3,1.4,0.8,1.9,1.3c0.5,0.6,0.9,1.2,1.1,2s0.4,1.5,0.4,2.4
				c0,0.9-0.1,1.8-0.4,2.6c-0.3,0.8-0.7,1.4-1.2,2c-0.5,0.5-1.2,1-1.9,1.3c-0.7,0.3-1.6,0.4-2.5,0.4H265.8z M274.3,152.2
				c0-0.7-0.1-1.2-0.3-1.8c-0.2-0.5-0.4-1-0.8-1.4c-0.3-0.4-0.8-0.7-1.3-0.9c-0.5-0.2-1.1-0.3-1.7-0.3h-2.4v8.9h2.4
				c0.7,0,1.2-0.1,1.7-0.3c0.5-0.2,0.9-0.5,1.3-0.9c0.3-0.4,0.6-0.9,0.8-1.4C274.2,153.4,274.3,152.8,274.3,152.2z"/>
			<path class="st0" d="M277.9,147.8v-2.1h1.9v2.1H277.9z M277.9,158.4v-9.1h1.9v9.1H277.9z"/>
			<path class="st0" d="M285.6,158.5c-0.6,0-1.2-0.1-1.7-0.4c-0.5-0.2-1-0.6-1.3-1c-0.4-0.4-0.7-0.9-0.9-1.5
				c-0.2-0.6-0.3-1.1-0.3-1.8c0-0.7,0.1-1.3,0.3-1.8c0.2-0.6,0.5-1.1,0.9-1.5c0.4-0.4,0.8-0.8,1.3-1c0.5-0.3,1.1-0.4,1.7-0.4
				c0.7,0,1.4,0.2,1.9,0.5c0.6,0.3,1,0.8,1.4,1.4v-1.7h1.7v8.9c0,0.7-0.1,1.2-0.4,1.8c-0.2,0.5-0.6,0.9-1,1.3
				c-0.4,0.4-1,0.6-1.5,0.8c-0.6,0.2-1.2,0.3-1.9,0.3c-1,0-1.9-0.2-2.5-0.5c-0.7-0.3-1.2-0.8-1.7-1.4l1.1-1c0.3,0.5,0.8,0.9,1.4,1.1
				c0.6,0.3,1.1,0.4,1.8,0.4c0.4,0,0.8-0.1,1.1-0.2c0.4-0.1,0.7-0.3,0.9-0.5c0.3-0.2,0.5-0.5,0.6-0.8c0.2-0.3,0.2-0.7,0.2-1.2v-1.4
				c-0.3,0.6-0.8,1-1.3,1.3C286.8,158.3,286.2,158.5,285.6,158.5z M286.2,156.9c0.3,0,0.6,0,0.8-0.1c0.3-0.1,0.5-0.2,0.7-0.4
				c0.2-0.2,0.4-0.4,0.6-0.6c0.2-0.2,0.3-0.4,0.3-0.7v-2.4c-0.1-0.3-0.3-0.6-0.5-0.8c-0.2-0.2-0.4-0.4-0.6-0.6
				c-0.2-0.2-0.5-0.3-0.8-0.4c-0.3-0.1-0.5-0.1-0.8-0.1c-0.4,0-0.8,0.1-1.1,0.3c-0.3,0.2-0.6,0.4-0.8,0.7s-0.4,0.6-0.5,1
				c-0.1,0.4-0.2,0.8-0.2,1.2c0,0.4,0.1,0.8,0.2,1.2c0.1,0.4,0.3,0.7,0.6,1c0.3,0.3,0.6,0.5,0.9,0.7
				C285.4,156.8,285.8,156.9,286.2,156.9z"/>
			<path class="st0" d="M292.8,147.8v-2.1h1.9v2.1H292.8z M292.8,158.4v-9.1h1.9v9.1H292.8z"/>
			<path class="st0" d="M301.9,157.9c-0.2,0.1-0.6,0.2-1,0.4c-0.4,0.1-0.9,0.2-1.4,0.2c-0.3,0-0.6,0-0.9-0.1
				c-0.3-0.1-0.5-0.2-0.7-0.4c-0.2-0.2-0.4-0.4-0.5-0.6c-0.1-0.3-0.2-0.6-0.2-1v-5.7h-1.2v-1.5h1.2v-3h1.9v3h2v1.5h-2v5.1
				c0,0.3,0.1,0.6,0.3,0.7c0.2,0.1,0.4,0.2,0.7,0.2s0.5,0,0.8-0.1c0.2-0.1,0.4-0.2,0.5-0.2L301.9,157.9z"/>
			<path class="st0" d="M305.5,158.5c-0.4,0-0.9-0.1-1.2-0.2c-0.4-0.1-0.7-0.3-1-0.6c-0.3-0.3-0.5-0.6-0.6-0.9
				c-0.2-0.3-0.2-0.7-0.2-1.1c0-0.4,0.1-0.8,0.3-1.2c0.2-0.3,0.5-0.7,0.8-0.9c0.3-0.3,0.8-0.5,1.2-0.6c0.5-0.1,1-0.2,1.6-0.2
				c0.4,0,0.9,0,1.3,0.1s0.8,0.2,1.1,0.3v-0.6c0-0.7-0.2-1.2-0.6-1.6c-0.4-0.4-0.9-0.6-1.7-0.6c-0.5,0-1,0.1-1.4,0.3
				c-0.5,0.2-1,0.4-1.5,0.8l-0.6-1.2c1.2-0.8,2.4-1.2,3.7-1.2c1.3,0,2.2,0.3,2.9,1c0.7,0.6,1,1.6,1,2.8v3.3c0,0.4,0.2,0.6,0.5,0.6
				v1.6c-0.2,0-0.3,0.1-0.5,0.1c-0.1,0-0.3,0-0.4,0c-0.4,0-0.7-0.1-0.9-0.3c-0.2-0.2-0.3-0.4-0.4-0.7l-0.1-0.6
				c-0.4,0.5-0.9,0.9-1.5,1.2C306.9,158.4,306.2,158.5,305.5,158.5z M306,157.1c0.5,0,0.9-0.1,1.3-0.3c0.4-0.2,0.7-0.4,1-0.7
				c0.2-0.2,0.4-0.4,0.4-0.7v-1.2c-0.3-0.1-0.7-0.2-1-0.3c-0.4-0.1-0.7-0.1-1.1-0.1c-0.7,0-1.2,0.1-1.7,0.4
				c-0.4,0.3-0.7,0.7-0.7,1.2c0,0.5,0.2,0.8,0.5,1.1S305.5,157.1,306,157.1z"/>
			<path class="st0" d="M312.8,145.6h1.9v10.1c0,0.3,0.1,0.6,0.3,0.8c0.2,0.2,0.4,0.3,0.7,0.3c0.1,0,0.3,0,0.4-0.1
				c0.2,0,0.3-0.1,0.5-0.2l0.3,1.5c-0.3,0.1-0.6,0.2-1,0.3c-0.4,0.1-0.7,0.1-1,0.1c-0.7,0-1.2-0.2-1.5-0.5c-0.4-0.4-0.5-0.9-0.5-1.5
				V145.6z"/>
		</g>
	</g>
	<g>
		<path class="st0" d="M110.5,94.6c0-11.8,9.1-20.3,21.3-20.3c6.8,0,12.4,2.5,16.1,6.9l-5.8,5.4c-2.6-3-5.9-4.6-9.8-4.6
			c-7.3,0-12.5,5.1-12.5,12.5c0,7.4,5.2,12.5,12.5,12.5c3.9,0,7.2-1.6,9.8-4.6l5.8,5.4c-3.7,4.5-9.3,7-16.2,7
			C119.6,114.8,110.5,106.4,110.5,94.6z"/>
		<path class="st0" d="M153.4,96.9V75h9.1v21.6c0,7.4,3.2,10.5,8.7,10.5c5.5,0,8.7-3.1,8.7-10.5V75h9v21.9
			c0,11.5-6.6,17.9-17.7,17.9C160,114.8,153.4,108.5,153.4,96.9z"/>
		<path class="st0" d="M222.9,105.8h-18.2l-3.5,8.4h-9.3L209.4,75h9l17.5,39.2h-9.5L222.9,105.8z M220,98.9l-6.2-15l-6.2,15H220z"/>
	</g>
	<g>
		<path class="st0" d="M278.9,75h17.8c12.8,0,21.6,7.7,21.6,19.6c0,11.9-8.8,19.6-21.6,19.6h-17.8V75z M296.2,106.7
			c7.8,0,12.9-4.6,12.9-12.1s-5.1-12.1-12.9-12.1H288v24.3H296.2z"/>
	</g>
	<g>
		<g>
			<defs>
				<path id="SVGID_00000033360320511430579330000014765308374867387794_" d="M-0.2,92.9c-0.1,2.3,0,4.6,0.2,6.9
					c1.4,13.1,8,24.3,17.5,32c8.5,6.8,19.2,10.8,30.8,10.5c1.4,0,2.8-0.1,4.2-0.3c10.3-1.1,19.5-5.4,26.6-11.8
					c-6.3,4.5-13.8,7.5-22.1,8.4c-15.8,1.7-30.5-4.7-39.9-15.8c-5.3-6.4-8.9-14.3-9.8-23.1c-1.6-15.1,4.8-29.3,16-38.4
					c-0.6-0.9-1.3-1.7-1.9-2.6c-0.6-0.9-1.3-1.7-1.9-2.6C7.8,64.6,0.3,78-0.2,92.9"/>
			</defs>
			<use xlink:href="#SVGID_00000033360320511430579330000014765308374867387794_"  style="overflow:visible;fill:#FFFFFF;"/>
			<clipPath id="SVGID_00000019651953272365645680000012497936634647378576_">
				<use xlink:href="#SVGID_00000033360320511430579330000014765308374867387794_"  style="overflow:visible;"/>
			</clipPath>
		</g>
		<path class="st0" d="M37.8,45.8c3.2,3.7,2.8,9.3-0.9,12.6c-3.7,3.2-9.3,2.8-12.6-0.9c-3.2-3.7-2.8-9.3,0.9-12.6
			C29,41.7,34.6,42,37.8,45.8"/>
	</g>
	<g>
		<g>
			<defs>
				<path id="SVGID_00000139982532491313088580000012293240080840802207_" d="M54.6,55.8C43.3,57,33.6,62.7,27,70.9
					c-5.9,7.3-9.3,16.6-9.1,26.6c0,1.2,0.1,2.4,0.2,3.6c1,8.9,4.7,16.8,10.2,23c-3.9-5.4-6.5-11.9-7.3-19.1
					c-1.5-13.6,4.1-26.4,13.7-34.4c5.5-4.6,12.3-7.7,20-8.5c13.1-1.4,25.3,4.2,33.2,13.8c0.7-0.6,1.5-1.1,2.2-1.7
					c0.7-0.6,1.5-1.1,2.2-1.7c-7.3-10-18.8-16.5-31.7-16.9c-0.5,0-1,0-1.6,0C57.6,55.6,56.1,55.7,54.6,55.8"/>
			</defs>
			<use xlink:href="#SVGID_00000139982532491313088580000012293240080840802207_"  style="overflow:visible;fill:#FFFFFF;"/>
			<clipPath id="SVGID_00000134242239923682352540000005456621625886192040_">
				<use xlink:href="#SVGID_00000139982532491313088580000012293240080840802207_"  style="overflow:visible;"/>
			</clipPath>
		</g>
		<path class="st0" d="M105.2,78.5c3.2,3.7,2.8,9.3-0.9,12.6c-3.7,3.2-9.3,2.8-12.6-0.9c-3.2-3.7-2.8-9.3,0.9-12.6
			C96.4,74.4,102,74.8,105.2,78.5"/>
	</g>
	<g>
		<g>
			<path class="st0" d="M266.9,90.6c-0.2,0-0.3,0.1-0.4,0.1c-3.1,0-6.3,0-9.4,0c-0.2,0-0.4-0.1-0.5-0.2c-1.7-1.5-3.9-1.8-5.9-0.8
				c-1.6,0.8-3.1,2.7-2.8,5.1c0.2,2,1.3,3.4,3.2,4.2c1.9,0.8,3.7,0.4,5.3-0.9c0.3-0.3,0.6-0.4,1.1-0.4c5.3,0,10.6,0,15.9,0
				c0.2,0,0.4,0,0.6,0c1.8-11.3-5.4-21.1-15.2-23.8c-9.5-2.6-18.7,1.7-23,8.2c1.8,1.3,3.7,2.6,5.5,3.9c4.4-5.3,9.9-7.4,16.5-5.2
				C262.5,82.3,265.5,85.8,266.9,90.6z M241.3,102.5c-1.8,1.3-3.7,2.6-5.6,3.9c4.8,6.9,13.5,10.5,22.3,8.4c6.8-1.6,11.5-5.7,14.6-12
				c-2.8,0-5.4,0-8,0c-0.1,0-0.3,0.1-0.4,0.2c-2.5,3-5.7,4.8-9.7,5.2c-3.7,0.4-7-0.6-10-2.8C243.4,104.6,242.4,103.5,241.3,102.5z"
				/>
			<path class="st0" d="M266.9,90.6c-1.4-4.8-4.4-8.3-9.1-9.9c-6.6-2.2-12.1-0.2-16.5,5.2c-1.8-1.3-3.7-2.6-5.5-3.9
				c4.3-6.5,13.5-10.9,23-8.2c9.8,2.7,16.9,12.5,15.2,23.8c-0.2,0-0.4,0-0.6,0c-5.3,0-10.6,0-15.9,0c-0.4,0-0.7,0.1-1.1,0.4
				c-1.6,1.3-3.4,1.7-5.3,0.9c-1.9-0.8-2.9-2.2-3.2-4.2c-0.3-2.4,1.2-4.3,2.8-5.1c1.9-1,4.2-0.6,5.9,0.8c0.1,0.1,0.4,0.2,0.5,0.2
				c3.1,0,6.3,0,9.4,0C266.6,90.6,266.7,90.6,266.9,90.6z"/>
		</g>
	</g>
</g>
</svg>
